- 
http://www.Speed.Cd      fast  and The Hottest Private Tracker on the net

   signup is open now

Please Seed back to make the speed Faster!!!

------------------nfo--------------------------
-                                             
                               
                                 
                                      
                                      
                                       
    CoaX!&lt;CPH&gt;                         
                               
                         
                            
          
    Team FiCO &lt;Final Coalition&gt; 2k8 Presents:    
    

Lethal.Lolita.1992.DVDRip.XviD-FiCO 
http://www.imdb.com/title/tt0103682/
Subtitles: None
Date: 2011.11

Director: Bradford May
Genre: Drama | Thriller
Plot: This sensational true story of a near fatal attraction left Mary Jo 
Buttafuoco paralyzed for life and made Amy Fisher America's most infamous 
teenager. Imprisoned 5-15 years for a crime she confessed to Fisher has 
nothing to lose by telling how it was-her way, her story. Deception, 
Promiscuous Sex, and Violence.

Cast
Cast overview, first billed only:
 	Ed Marinaro	 ...	
Joey Buttafuoco
 	Noelle Parker	 ...	
Amy Fisher
 	Boyd Kestner	 ...	
Paul Makely
 	Pierrette Grace		
 	Lawrence Dane	 ...	
Elliot Fisher
 	Kate Lynch	 ...	
Roseann Fisher
 	Kathleen Laskey	 ...	
Mary Jo
 	Rino Romano	 ...	
Mick
 	Gemma Barry	 ...	
Theresa
 	Kirsten Kieferle	 ...	
Ellen
 	Evan Sabba	 ...	
Student
 	Henriette Ivanans	 ...	
Darlene
 	Marianna Pascal	 ...	
Aunt Violet
 	Angelo Pedari	 ...	
Bar Friend #1
 	Brian Kaulback	 ...	
Bar Friend #2
Full cast and crew 

Stats:
General
Format                           : AVI
Format/Info                      : Audio Video Interleave
File size                        : 695 MiB
Duration                         : 1h 32mn
Overall bit rate                 : 1 049 Kbps
Writing application              : VirtualDubMod 1.5.10.2 (build 2542/release)
Writing library                  : VirtualDubMod build 2542/release

Video
ID                               : 0
Format                           : MPEG-4 Visual
Format profile                   : Advanced Simple@L5
Format settings, BVOP            : Yes
Format settings, QPel            : No
Format settings, GMC             : No warppoints
Format settings, Matrix          : Default (H.263)
Codec ID                         : XVID
Codec ID/Hint                    : XviD
Duration                         : 1h 32mn
Bit rate                         : 911 Kbps
Width                            : 544 pixels
Height                           : 400 pixels
Display aspect ratio             : 4:3
Frame rate                       : 23.976 fps
Resolution                       : 8 bits
Colorimetry                      : 4:2:0
Scan type                        : Progressive
Bits/(Pixel*Frame)               : 0.175
Stream size                      : 604 MiB (87%)
Writing library                  : XviD 61

Audio
ID                               : 1
Format                           : AC-3
Format/Info                      : Audio Coding 3
Format profile                   : Dolby Digital
Format_Settings_ModeExtension    : CM (complete main)
Codec ID                         : 2000
Duration                         : 1h 32mn
Bit rate mode                    : Constant
Bit rate                         : 128 Kbps
Channel(s)                       : 2 channels
Channel positions                : Front: L R
Sampling rate                    : 48.0 KHz
Stream size                      : 84.8 MiB (12%)
Alignment                        : Split accross interleaves
Interleave, duration             : 42 ms (1.00 video frame)
Interleave, preload duration     : 500 ms




Release notes:
enjoy!


                                                                     
                                                             
                                                               
                                                               
                       
      
              Greetz from Team FiCO:               
              
                                                             
                                                             
           BLooDWeiSeR,CULTXviD,SiCK,DoNE,LAP,TH30R1STS              
                                                                             
               WinBeta, DvF, WASTE, BERC, KALEVALA, Jiggly                   
                                                                             
                                                             
                                       
                             
                      
                  
           
            
                    
                  
                
                            
                                        
                                        
                                            
                                                    
                                                              
                      you know where to find us...                     
                        
   NFO By: CoaXCable/CoolPHat &lt;#CPH&gt;